HIERARCHY
ROOT root
{
	OFFSET	0	13.1	24.9
	CHANNELS 6  Xposition Yposition Zposition Xrotation Yrotation Zrotation
	JOINT spine_1
	{
		OFFSET	0	9.99999	0
		CHANNELS 3  Xrotation Yrotation Zrotation
		JOINT spine_2
		{
			OFFSET	0	112	-10
			CHANNELS 3  Xrotation Yrotation Zrotation
			JOINT spine_3
			{
				OFFSET	0	206.5	19.3
				CHANNELS 3  Xrotation Yrotation Zrotation
				JOINT spine_4
				{
					OFFSET	0	110.4	14.6
					CHANNELS 3  Xrotation Yrotation Zrotation
					JOINT neck_1
					{
						OFFSET	0	71.8	-50.3
						CHANNELS 3  Xrotation Yrotation Zrotation
						JOINT neck_2
						{
							OFFSET	0	86.2	-25.8
							CHANNELS 3  Xrotation Yrotation Zrotation
							JOINT head_ee
							{
								OFFSET	0	179.8	-8.7
								CHANNELS 3  Xrotation Yrotation Zrotation
								End Site
								{
									OFFSET	1	0	0
								}
							}
						}
					}
					JOINT left_clavicle
					{
						OFFSET	-43.2	22.4	-70.8
						CHANNELS 3  Xrotation Yrotation Zrotation
						JOINT left_shoulder
						{
							OFFSET	-93.9	-5.79999	48.7
							CHANNELS 3  Xrotation Yrotation Zrotation
							JOINT left_elbow
							{
								OFFSET	-291.4	-30.8	15.2
								CHANNELS 3  Xrotation Yrotation Zrotation
								JOINT left_lowarm_twist
								{
									OFFSET	-110.7	-3.89999	13.6
									CHANNELS 3  Xrotation Yrotation Zrotation
									JOINT left_hand
									{
										OFFSET	-110.7	-3.89999	13.6
										CHANNELS 3  Xrotation Yrotation Zrotation
										JOINT left_ee
										{
											OFFSET	-80.8	-5.10001	12.1
											CHANNELS 3  Xrotation Yrotation Zrotation
											End Site
											{
												OFFSET	1	0	0
											}
										}
									}
								}
							}
						}
					}
					JOINT right_clavicle
					{
						OFFSET	43.2	22.4	-70.8
						CHANNELS 3  Xrotation Yrotation Zrotation
						JOINT right_shoulder
						{
							OFFSET	93.9	-5.79999	48.7
							CHANNELS 3  Xrotation Yrotation Zrotation
							JOINT right_elbow
							{
								OFFSET	291.4	-30.8	15.2
								CHANNELS 3  Xrotation Yrotation Zrotation
								JOINT right_lowarm_twist
								{
									OFFSET	110.7	-3.89999	13.6
									CHANNELS 3  Xrotation Yrotation Zrotation
									JOINT right_hand
									{
										OFFSET	110.7	-3.89999	13.6
										CHANNELS 3  Xrotation Yrotation Zrotation
										JOINT right_ee
										{
											OFFSET	80.8	-5.10001	12.1
											CHANNELS 3  Xrotation Yrotation Zrotation
											End Site
											{
												OFFSET	1	0	0
											}
										}
									}
								}
							}
						}
					}
				}
			}
		}
	}
	JOINT left_hip
	{
		OFFSET	-82.8	-127.5	0.300001
		CHANNELS 3  Xrotation Yrotation Zrotation
		JOINT left_knee
		{
			OFFSET	-28.2	-396.7	2.2
			CHANNELS 3  Xrotation Yrotation Zrotation
			JOINT left_ankle
			{
				OFFSET	-11.7	-411.3	35.4
				CHANNELS 3  Xrotation Yrotation Zrotation
				JOINT left_toes
				{
					OFFSET	0	-60	-88.6
					CHANNELS 3  Xrotation Yrotation Zrotation
					JOINT left_foot_ee
					{
						OFFSET	-22.5	-16.5	-42.2
						CHANNELS 3  Xrotation Yrotation Zrotation
						End Site
						{
							OFFSET	1	0	0
						}
					}
				}
			}
		}
	}
	JOINT right_hip
	{
		OFFSET	82.8	-127.5	0.300001
		CHANNELS 3  Xrotation Yrotation Zrotation
		JOINT right_knee
		{
			OFFSET	28.2	-396.7	2.2
			CHANNELS 3  Xrotation Yrotation Zrotation
			JOINT right_ankle
			{
				OFFSET	11.7	-411.3	35.4
				CHANNELS 3  Xrotation Yrotation Zrotation
				JOINT right_toes
				{
					OFFSET	0	-60	-88.6
					CHANNELS 3  Xrotation Yrotation Zrotation
					JOINT right_foot_ee
					{
						OFFSET	22.5	-16.5	-42.2
						CHANNELS 3  Xrotation Yrotation Zrotation
						End Site
						{
							OFFSET	1	0	0
						}
					}
				}
			}
		}
	}
}
MOTION
Frames: 12
Frame Time: 0.02
1250.73564761 735.157 -1758.55318815 5.61804980809 40.0184830698 -10.0361645364 -2.84388 0.248316 0.592867 -2.84371 0.210088 0.607466 -2.84116 0.0460048 0.641119 -2.84171 0.146678 0.625809 4.45737 1.52292 0.533367 4.46211 2.15945 0.690177 -0.0 0.0 -0.0 8.61262 -16.6933 16.5415 -7.58989 12.1455 66.1092 0.440145 -12.3002 0.0474275 -15.461 -0.79352 1.80469 -0.605461 -11.7142 -9.097 -0.0 0.0 -0.0 8.35703 28.4792 -14.9412 -38.9329 59.0063 -29.0746 0.594883 16.4197 -0.0858292 -9.12768 0.409553 -1.09148 1.83933 -0.416929 -12.5511 0.0 0.0 0.0 13.7752 -10.4413 7.02087 -54.3108 -1.61797 7.86958 39.6586 22.7936 -5.06839 5.963 -0.0 -0.0 -0.0 0.0 -0.0 11.8662 -1.68815 6.57589 -27.3479 -0.136475 -4.15495 24.5092 -22.6804 3.40455 -7.61025 0.0 0.0 0.0 0.0 0.0 
1219.01546961 737.058 -1783.05374748 9.78981528603 41.5979943669 -13.5959539238 -3.25508 0.461617 0.847123 -3.25477 0.406779 0.874777 -3.24781 0.160229 0.951326 -3.24894 0.308456 0.914086 3.83076 2.42011 0.634436 3.84364 3.64255 0.864759 -0.0 0.0 -0.0 7.87828 -14.1857 15.0773 -8.06458 14.1927 66.3439 0.239975 -6.77948 0.0142141 -15.8456 -0.819351 1.84659 -0.936536 -8.76386 -10.0962 -0.0 0.0 -0.0 8.46719 28.6761 -15.1613 -40.2498 59.8904 -29.6226 0.618436 17.0328 -0.0926079 -11.6901 0.555353 -1.38505 1.74811 -0.790025 -12.0762 0.0 0.0 0.0 21.9406 -11.8374 9.50458 -54.7125 -1.65689 7.91773 36.1438 24.6857 -4.77297 4.82844 -0.0 -0.0 -0.0 0.0 -0.0 1.95076 -1.20414 6.00615 -20.6044 -0.287964 -3.13178 27.5689 -23.2082 3.78354 -6.40693 0.0 0.0 0.0 0.0 0.0 
1195.74281598 737.301 -1794.65667602 10.4553166116 44.9242980158 -15.3487945039 -2.97309 0.416134 1.03564 -2.97256 0.349395 1.06001 -2.96511 0.0612664 1.11442 -2.96676 0.236489 1.09077 2.88525 2.44751 1.15736 2.89591 3.28268 1.46526 -0.0 0.0 -0.0 7.88859 -12.1484 15.1952 -10.0839 14.5887 65.6916 0.292208 -8.23662 0.0210396 -17.1993 -0.912524 1.99271 -0.935538 -5.81498 -8.80943 -0.0 0.0 -0.0 7.96495 28.6466 -14.0589 -40.7937 59.977 -28.7786 0.662033 18.1571 -0.105787 -13.0744 0.639558 -1.54089 1.40272 -1.35797 -9.95642 0.0 0.0 0.0 23.923 -14.254 12.4357 -54.604 -1.64634 7.90475 34.1044 26.1383 -4.59875 7.01255 -0.0 -0.0 -0.0 0.0 -0.0 -1.79995 -2.29768 6.4621 -15.8452 -0.321975 -2.40256 29.8431 -24.8014 4.0844 -6.62792 0.0 0.0 0.0 0.0 0.0 
1172.54481405 736.17 -1799.90630932 11.8120826529 48.0311238926 -17.3556908978 -2.75191 0.383192 1.00238 -2.75141 0.318635 1.02472 -2.74484 0.0448764 1.07218 -2.74638 0.213634 1.05164 1.63749 2.85077 2.16709 1.65346 3.20339 2.62217 -0.0 0.0 -0.0 7.92497 -10.8865 15.3227 -11.4145 14.7237 65.7886 0.340747 -9.58119 0.028557 -19.0251 -1.04363 2.18627 -1.27914 -0.205598 -8.6664 -0.0 0.0 -0.0 7.19697 28.7384 -12.3635 -34.9358 58.9473 -31.1436 0.605985 16.7092 -0.0889943 -16.2458 0.846539 -1.89002 0.485143 -3.90371 -4.84123 0.0 0.0 0.0 26.3165 -15.0065 14.4439 -53.1864 -1.51085 7.73338 34.0868 26.2753 -4.60092 6.8449 -0.0 -0.0 -0.0 0.0 -0.0 -4.7104 -1.75393 6.84525 -12.7531 -0.311583 -1.92831 31.1781 -25.8881 4.26527 -7.30676 0.0 0.0 0.0 0.0 0.0 
1155.19920592 736.045 -1805.62218558 11.3539337265 51.361353825 -18.0362649219 -2.40628 0.23912 1.21257 -2.40547 0.161483 1.22532 -2.40101 -0.151189 1.22663 -2.40311 0.0444175 1.23512 0.964373 2.43497 2.60703 0.982342 2.14389 3.06519 -0.0 0.0 -0.0 7.35281 -7.33347 14.2198 -13.0923 13.6361 65.6174 0.533062 -14.7922 0.0691963 -21.2243 -1.20967 2.41378 -0.686151 5.09373 -2.37373 -0.0 0.0 -0.0 6.65008 28.5269 -11.1909 -38.6467 58.7434 -26.7148 0.73961 20.1219 -0.131226 -19.0278 1.04383 -2.18655 -0.879196 -8.70456 2.05762 0.0 0.0 0.0 29.0671 -17.1753 16.5019 -48.998 -1.13603 7.20849 31.0533 26.4443 -4.26608 7.5195 -0.0 -0.0 -0.0 0.0 -0.0 -7.77878 -4.29554 6.907 -4.78441 -0.167209 -0.715013 32.7593 -26.2055 4.45247 -8.1199 0.0 0.0 0.0 0.0 0.0 
1133.5912847 734.556 -1812.35143069 11.3409463436 53.9325088279 -18.6943135425 -2.29037 0.183664 1.39097 -2.2893 0.0947892 1.39984 -2.28578 -0.256799 1.37935 -2.28844 -0.0357565 1.40259 1.06964 2.41262 2.92228 1.09151 1.83537 3.40694 -0.0 0.0 -0.0 7.12269 -4.50575 13.8028 -14.7599 13.6135 65.0107 0.669098 -18.3379 0.108 -22.4839 -1.30869 2.5412 -0.0918766 6.49809 2.111 -0.0 0.0 -0.0 6.26745 26.7564 -10.5464 -38.8992 59.0443 -26.5889 0.858342 23.0349 -0.174907 -23.3427 1.3778 -2.62682 -1.8176 -12.1418 6.49969 0.0 0.0 0.0 31.0521 -17.6725 17.3086 -44.5463 -0.781035 6.62266 28.4627 26.5042 -3.96401 7.61449 -0.0 -0.0 -0.0 0.0 -0.0 -10.0076 -4.73084 6.89284 -1.0816 -0.0430221 -0.160407 33.7597 -26.2527 4.56447 -8.90691 0.0 0.0 0.0 0.0 0.0 
1112.71580814 733.494 -1815.42678661 10.119783091 54.7560794087 -18.2120659342 -2.08081 0.299432 1.44793 -2.07967 0.2067 1.46404 -2.07304 -0.158914 1.47 -2.07604 0.0752126 1.47664 0.349928 2.27095 2.3331 0.36465 2.11627 2.75039 -0.0 0.0 -0.0 6.63174 -1.29806 12.8521 -14.6424 15.3854 64.8849 0.750087 -20.3836 0.134853 -22.8737 -1.33989 2.58018 0.418399 8.75297 6.34532 -0.0 0.0 -0.0 5.64773 25.0245 -9.37174 -33.4577 59.6827 -31.5384 0.815719 22.0027 -0.158582 -27.3006 1.71261 -3.00774 -2.86459 -14.1094 12.1781 0.0 0.0 0.0 33.0214 -18.457 18.001 -39.3567 -0.426347 5.90802 22.9565 27.623 -3.30422 7.1312 -0.0 -0.0 -0.0 0.0 -0.0 -12.896 -4.55424 7.09571 4.78682 0.226508 0.699277 31.9787 -26.3569 4.36911 -10.8162 0.0 0.0 0.0 0.0 0.0 
1079.84226684 727.313 -1836.38959683 11.0410484095 57.2467024979 -18.7153812918 -1.95487 0.243026 1.46512 -1.95369 0.149314 1.47761 -1.94856 -0.214702 1.46954 -1.95157 0.0200522 1.485 0.983208 1.58843 3.22525 1.01124 0.130891 3.65876 -0.0 0.0 -0.0 5.99316 1.30848 11.623 -17.4585 12.171 64.9685 0.818373 -22.0674 0.159578 -24.6617 -1.48642 2.75629 2.12794 6.83783 16.9811 -0.0 0.0 -0.0 7.0394 23.1198 -12.595 -31.1884 51.9173 -25.4981 0.907815 24.2134 -0.194733 -33.2569 2.26423 -3.53552 -5.12037 -21.282 22.1505 0.0 0.0 0.0 32.8196 -21.2712 18.3536 -30.1747 0.0373344 4.57741 17.1201 26.7251 -2.50898 7.86327 -0.0 -0.0 -0.0 0.0 -0.0 -14.8385 -5.90182 6.05525 3.14067 0.142016 0.460919 37.0739 -25.7116 4.89989 -11.8158 0.0 0.0 0.0 0.0 0.0 
1077.56519661 727.313 -1834.53537341 11.150132888 57.6020948198 -18.8448298536 -1.95487 0.243026 1.46512 -1.95369 0.149314 1.47761 -1.94856 -0.214702 1.46954 -1.95157 0.0200522 1.485 0.983208 1.58843 3.22525 1.01124 0.130891 3.65876 -0.0 0.0 -0.0 5.99316 1.30848 11.623 -17.4585 12.171 64.9685 0.818373 -22.0674 0.159578 -24.6617 -1.48642 2.75629 2.12794 6.83783 16.9811 -0.0 0.0 -0.0 7.0394 23.1198 -12.595 -31.1884 51.9173 -25.4981 0.907815 24.2134 -0.194733 -33.2569 2.26423 -3.53552 -5.12037 -21.282 22.1505 0.0 0.0 0.0 32.8196 -21.2712 18.3536 -30.1747 0.0373344 4.57741 17.1201 26.7251 -2.50898 7.86327 -0.0 -0.0 -0.0 0.0 -0.0 -14.8385 -5.90182 6.05525 3.14067 0.142016 0.460919 37.0739 -25.7116 4.89989 -11.8158 0.0 0.0 0.0 0.0 0.0 
1072.73240894 727.313 -1830.51961536 11.3923651868 58.3620967489 -19.1305142983 -1.95487 0.243026 1.46512 -1.95369 0.149314 1.47761 -1.94856 -0.214702 1.46954 -1.95157 0.0200522 1.485 0.983208 1.58843 3.22525 1.01124 0.130891 3.65876 -0.0 0.0 -0.0 5.99316 1.30848 11.623 -17.4585 12.171 64.9685 0.818373 -22.0674 0.159578 -24.6617 -1.48642 2.75629 2.12794 6.83783 16.9811 -0.0 0.0 -0.0 7.0394 23.1198 -12.595 -31.1884 51.9173 -25.4981 0.907815 24.2134 -0.194733 -33.2569 2.26423 -3.53552 -5.12037 -21.282 22.1505 0.0 0.0 0.0 32.8196 -21.2712 18.3536 -30.1747 0.0373344 4.57741 17.1201 26.7251 -2.50898 7.86327 -0.0 -0.0 -0.0 0.0 -0.0 -14.8385 -5.90182 6.05525 3.14067 0.142016 0.460919 37.0739 -25.7116 4.89989 -11.8158 0.0 0.0 0.0 0.0 0.0 
1056.14245114 718.534 -1852.87350709 9.32598454858 56.9560903899 -16.6910509961 -2.18757 0.340966 1.63892 -2.1861 0.236001 1.65728 -2.1775 -0.180971 1.66419 -2.18136 0.0840901 1.67189 0.888479 0.527993 2.5468 0.909532 -1.17756 2.81843 -0.0 0.0 -0.0 5.0876 4.0135 9.93379 -15.8559 14.4097 65.8424 0.807515 -21.8022 0.155522 -25.2567 -1.5364 2.81388 2.90382 6.48827 22.2594 -0.0 0.0 -0.0 7.34437 22.0434 -13.3602 -25.5253 50.1219 -27.1034 0.966208 25.5768 -0.219316 -37.6517 2.70496 -3.88696 -6.17304 -23.2069 27.531 0.0 0.0 0.0 31.276 -21.8804 15.2278 -10.7557 0.291273 1.62253 14.5126 26.5341 -2.14472 7.72439 -0.0 -0.0 -0.0 0.0 -0.0 -15.9111 -5.83445 5.32198 3.6394 0.166889 0.533383 41.3458 -24.3804 5.27482 -12.6582 0.0 0.0 0.0 0.0 0.0 
1051.89426447 718.534 -1849.27889356 9.49072759104 57.5949696954 -16.8868721726 -2.18757 0.340966 1.63892 -2.1861 0.236001 1.65728 -2.1775 -0.180971 1.66419 -2.18136 0.0840901 1.67189 0.888479 0.527993 2.5468 0.909532 -1.17756 2.81843 -0.0 0.0 -0.0 5.0876 4.0135 9.93379 -15.8559 14.4097 65.8424 0.807515 -21.8022 0.155522 -25.2567 -1.5364 2.81388 2.90382 6.48827 22.2594 -0.0 0.0 -0.0 7.34437 22.0434 -13.3602 -25.5253 50.1219 -27.1034 0.966208 25.5768 -0.219316 -37.6517 2.70496 -3.88696 -6.17304 -23.2069 27.531 0.0 0.0 0.0 31.276 -21.8804 15.2278 -10.7557 0.291273 1.62253 14.5126 26.5341 -2.14472 7.72439 -0.0 -0.0 -0.0 0.0 -0.0 -15.9111 -5.83445 5.32198 3.6394 0.166889 0.533383 41.3458 -24.3804 5.27482 -12.6582 0.0 0.0 0.0 0.0 0.0 
